Coordinates
version=1
nRows=19
nColumns=24
inDegrees=yes

Units are S.I. units (second, meters, Newtons, ...)
If the header above contains a line with 'inDegrees', this indicates whether rotational values are in degrees (yes) or radians (no).

endheader
time	pelvis_tilt	pelvis_list	pelvis_rotation	pelvis_tx	pelvis_ty	pelvis_tz	hip_flexion_r	hip_adduction_r	hip_rotation_r	knee_angle_r	ankle_angle_r	subtalar_angle_r	mtp_angle_r	hip_flexion_l	hip_adduction_l	hip_rotation_l	knee_angle_l	ankle_angle_l	subtalar_angle_l	mtp_angle_l	lumbar_extension	lumbar_bending	lumbar_rotation
      0.00000000	      3.50045776	     -7.52633740	    -90.60589423	     -0.06110188	      0.96178647	     -0.02560617	    -15.62242529	     -4.50671819	      6.09890058	     12.09018511	     -2.62367791	     -0.10240982	     10.12503781	    -13.94375529	     -0.30254183	     -4.05009582	      2.91833371	      5.53258624	     11.90548065	      2.29805269	    -11.90977794	     -4.59903854	      3.26337613
      0.01666700	     -3.22879410	    -14.46783431	    -89.06245107	      0.05925257	      0.97632319	      0.14412552	    -10.09699373	      1.90479181	      0.88460528	    -14.15566269	     15.01266192	      2.84322411	     -9.61249338	    -12.79106266	     -1.44551731	      1.26653862	     -3.10241344	      8.64595492	      4.78962696	     -2.27287786	    -22.13748399	      4.45337742	     -1.11309274
      0.03333400	     -2.49939682	    -13.92066947	    -88.93218734	      0.05901538	      0.97534555	      0.14605828	     -9.74804600	      1.13427425	      0.82275713	    -12.40941258	     14.30089430	      2.90800375	     -9.44679812	    -12.34843820	     -0.66894865	      1.57963746	     -3.01560482	      8.52097532	      4.47583923	     -2.21279483	    -21.50759477	      3.66017768	     -0.44884400
      0.05000100	     -1.74114255	    -13.37818633	    -88.80902873	      0.05873872	      0.97428197	      0.14792641	     -9.41197787	      0.34533218	      0.75500599	    -10.72665334	     13.57030287	      3.10280241	     -9.11889278	    -11.92784326	      0.12246962	      1.93833732	     -2.91152616	      8.34822597	      4.12822730	     -2.05108516	    -20.88007400	      2.84637029	      0.16953938
      0.06666800	     -0.93063604	    -12.87473735	    -88.62006398	      0.05846527	      0.97315002	      0.14969616	     -9.16056736	     -0.48210748	      0.66721156	     -9.02762745	     12.58603449	      3.51765104	     -8.01095449	    -11.57548124	      0.92013811	      2.45386910	     -2.76770498	      8.00775060	      3.71329559	     -1.57499943	    -20.28588517	      2.01383055	      0.66903772
      0.08333500	     -0.13547965	    -12.37813028	    -88.55510776	      0.05794611	      0.97193132	      0.15142808	     -8.90648599	     -1.30154644	      0.70833248	     -7.40643340	     11.48687881	      4.05499462	     -6.45739060	    -11.24651804	      1.72558886	      2.73276794	     -2.62850377	      7.81240624	      3.39095279	     -1.29590972	    -19.69827118	      1.17221397	      1.25252321
      0.10000200	      0.57595684	    -11.91242970	    -88.59339673	      0.05717470	      0.97073488	      0.15321872	     -8.66407175	     -2.01492797	      0.87573456	     -6.03257846	     10.76027204	      4.41975300	     -5.90952253	    -10.97272788	      2.46436529	      2.74660239	     -2.46764163	      7.81270250	      3.23428411	     -1.28309306	    -19.13156653	      0.38007089	      1.83141325
      0.11666900	      1.05383793	    -11.66781419	    -88.51988729	      0.05656073	      0.97002891	      0.15501552	     -8.70544293	     -2.44220594	      1.00931764	     -4.92708908	      9.31829225	      4.68606080	     -3.73518162	    -10.91205222	      2.90248047	      2.91144452	     -2.33979137	      7.67094388	      3.11032712	     -0.85357244	    -18.78985756	     -0.13394146	      2.11493005
      0.13333600	      1.55986389	    -11.38902772	    -88.54316069	      0.05577793	      0.96920387	      0.15682035	     -8.70389930	     -2.88058035	      1.10243583	     -4.02983962	      8.56389962	      4.88986998	     -3.39947968	    -10.83092153	      3.39220387	      2.92727087	     -2.19340217	      7.70894591	      3.04438750	     -0.74394198	    -18.39822664	     -0.71315495	      2.35555375
      0.15000300	      1.94620326	    -11.25261096	    -88.51590015	      0.05497457	      0.96865396	      0.15855246	     -8.86046089	     -3.17261965	      1.19759697	     -3.31906308	      7.71430738	      4.95307721	     -2.06223460	    -10.87784410	      3.72730245	      3.02269289	     -2.09356361	      7.63148365	      3.00139898	     -0.17817273	    -18.15883085	     -1.16034019	      2.41175389
      0.16667000	      2.29686475	    -11.08619633	    -88.56172461	      0.05382381	      0.96795605	      0.16025493	     -8.89490922	     -3.39840697	      1.42145407	     -2.96215217	      7.70999837	      4.69002556	     -1.52622429	    -10.88028316	      4.03258780	      3.03471051	     -2.03642991	      7.84692353	      3.00401816	      0.10998655	    -17.88543061	     -1.60814574	      2.46408188
      0.18333700	      2.59680664	    -11.01521756	    -88.58090858	      0.05258476	      0.96742232	      0.16191038	     -9.03482486	     -3.54425996	      1.60312638	     -2.79113709	      7.92639801	      4.29135072	     -0.81499176	    -10.98720757	      4.26846372	      3.07656784	     -1.97671066	      7.98999687	      3.02852456	      0.68850627	    -17.71402416	     -2.00486010	      2.38523494
      0.20000400	      2.92534324	    -10.91880323	    -88.60908938	      0.05127434	      0.96692388	      0.16351452	     -9.25648903	     -3.75945596	      1.80725855	     -2.41818360	      8.11212985	      3.91578207	     -0.46715210	    -11.05110449	      4.52927165	      3.20830215	     -1.94107828	      8.27448119	      3.00583083	      0.93687554	    -17.51634137	     -2.44273118	      2.33364122
      0.21667100	      3.31288246	    -10.66563934	    -88.76392881	      0.04981907	      0.96636446	      0.16487507	     -9.39237097	     -4.11405303	      2.08394153	     -1.80128751	      7.74724270	      3.65900738	      0.48193797	    -10.86025358	      4.89116340	      3.30852447	     -2.03567759	      8.38673872	      2.88930420	      1.51251952	    -17.15451919	     -2.98547482	      2.43338480
      0.23333800	      3.67127473	    -10.51410376	    -88.86574507	      0.04836474	      0.96609035	      0.16619769	     -9.76313534	     -4.46429864	      2.36347569	     -0.97899916	      7.04588502	      3.36062276	      1.85145113	    -10.79319687	      5.20760732	      3.46120434	     -2.08813903	      8.53785379	      2.80727716	      1.92128702	    -16.90058329	     -3.49382762	      2.46020388
      0.25000500	      3.97820748	    -10.31581525	    -89.03743122	      0.04676354	      0.96573966	      0.16778603	    -10.08584549	     -4.78050252	      2.73820714	     -0.16681638	      6.62314921	      3.07466985	      2.81674350	    -10.65191380	      5.47116183	      3.52876924	     -2.21262109	      8.79562287	      2.78027745	      2.16793602	    -16.57844558	     -3.97108117	      2.57760300
      0.26667200	      4.21702741	    -10.08959238	    -89.24948364	      0.04498000	      0.96529340	      0.16979117	    -10.39081851	     -5.02815722	      3.16831101	      0.61885247	      6.59475909	      2.83130882	      3.45738418	    -10.48502517	      5.63846796	      3.56319433	     -2.36612451	      9.06247824	      2.78986437	      2.37607565	    -16.19993047	     -4.39499486	      2.75625612
      0.28333900	      4.39049658	     -9.93334281	    -89.55944859	      0.04311950	      0.96499506	      0.17197956	    -10.76530485	     -5.24169029	      3.65497148	      1.38451800	      6.50107654	      2.69381850	      4.66501753	    -10.36715215	      5.75358949	      3.38362210	     -2.58754975	      9.31762426	      2.96622091	      2.68453180	    -15.86950512	     -4.79233966	      2.88390664
      0.30000600	      4.53815280	     -9.78476832	    -89.86029485	      0.04155778	      0.96480285	      0.17434671	    -11.19447296	     -5.44175323	      3.96641186	      2.21718257	      6.38266713	      2.68171307	      5.70403304	    -10.29305073	      5.84922687	      3.30208801	     -2.75711998	      9.58079499	      3.06008601	      2.86817749	    -15.54394692	     -5.14327215	      3.00850574
